<?xml version="1.0" standalone="no"?>
<!DOCTYPE svg PUBLIC "-//W3C//DTD SVG 20010904//EN"
 "http://www.w3.org/TR/2001/REC-SVG-20010904/DTD/svg10.dtd">
<svg version="1.0" xmlns="http://www.w3.org/2000/svg"
 width="1024.000000pt" height="1024.000000pt" viewBox="0 0 1024.000000 1024.000000"
 preserveAspectRatio="xMidYMid meet">
<metadata>
Created by potrace 1.14, written by Peter Selinger 2001-2017
</metadata>
<g transform="translate(0.000000,1024.000000) scale(0.100000,-0.100000)"
fill="#000000" stroke="none">
<path d="M4160 9368 c-14 -5 -33 -11 -43 -13 -25 -5 -111 -48 -115 -57 -2 -5
-8 -8 -13 -8 -14 0 -67 -49 -113 -106 -40 -49 -42 -50 -61 -32 -10 10 -44 31
-75 46 -47 23 -67 27 -140 27 -84 -1 -130 -15 -215 -68 -78 -48 -121 -74 -125
-73 -3 0 -48 -25 -100 -56 -154 -91 -332 -194 -375 -218 -33 -18 -90 -51 -175
-100 -8 -5 -63 -37 -123 -71 -59 -34 -123 -79 -143 -98 -47 -47 -84 -121 -90
-179 -8 -70 -9 -72 -41 -63 -66 19 -269 7 -308 -17 -5 -4 -14 -7 -20 -7 -20
-1 -136 -64 -168 -90 -30 -25 -185 -171 -347 -325 -77 -74 -344 -327 -464
-440 -172 -163 -236 -229 -272 -286 -21 -32 -39 -61 -40 -64 0 -3 -6 -18 -13
-35 -41 -96 -55 -220 -37 -338 7 -51 42 -155 57 -171 15 -17 10 -40 -15 -66
-13 -14 -83 -81 -156 -150 -319 -299 -366 -355 -401 -472 -54 -185 -11 -373
117 -514 26 -29 252 -268 364 -384 89 -94 329 -346 365 -385 90 -96 353 -371
385 -402 163 -158 412 -192 610 -84 60 32 80 48 181 144 47 45 97 92 111 105
l25 23 -3 -88 c-4 -141 -17 -660 -18 -748 -1 -44 4 -101 10 -128 7 -26 12 -48
12 -50 -2 -10 37 -86 63 -123 40 -58 136 -154 155 -154 3 0 18 -9 33 -20 35
-24 164 -68 222 -75 24 -3 141 -7 259 -10 118 -2 319 -7 445 -10 408 -10 605
-15 870 -20 241 -5 278 -9 281 -33 2 -21 42 -71 78 -98 54 -41 91 -53 157 -49
123 6 224 106 229 227 1 24 1 45 0 48 -1 3 -3 16 -6 29 -11 58 -60 119 -126
153 -62 33 -167 32 -223 -1 -49 -29 -88 -71 -105 -111 l-13 -30 -251 6 c-303
7 -540 12 -658 14 -49 1 -89 5 -89 8 -4 23 -3 755 1 760 3 4 23 17 45 28 22
12 52 37 68 56 28 35 69 133 60 142 -3 3 -7 22 -8 43 -9 122 -123 217 -252
209 -71 -4 -131 -33 -172 -83 -101 -122 -61 -309 79 -375 l35 -17 0 -373 c0
-205 -3 -377 -7 -383 -3 -5 -26 -9 -50 -8 -23 0 -167 4 -320 7 -266 7 -300 8
-361 21 -44 9 -149 62 -182 92 -46 42 -106 119 -98 126 3 4 2 7 -4 7 -6 0 -14
15 -18 33 -4 17 -10 41 -13 52 -6 27 -6 87 2 380 4 138 9 347 11 465 l5 215
99 95 c54 52 160 154 235 225 75 72 176 167 224 213 81 78 89 83 117 76 16 -4
59 -8 95 -8 94 -1 162 41 213 132 10 18 15 32 11 32 -3 0 -2 6 3 13 14 18 8
116 -10 158 -53 123 -208 179 -331 119 -47 -22 -106 -81 -106 -105 0 -7 -5
-15 -12 -17 -19 -7 -20 -145 -2 -181 l16 -29 -65 -62 c-94 -89 -373 -354 -423
-401 -23 -22 -113 -107 -200 -190 -86 -82 -195 -185 -240 -228 -96 -92 -144
-128 -155 -121 -5 3 -9 1 -9 -5 0 -9 -42 -26 -91 -37 -52 -11 -177 -2 -204 15
-5 3 -12 6 -15 6 -15 2 -89 47 -110 68 -14 13 -95 97 -180 187 -200 210 -222
233 -367 386 -67 71 -148 156 -180 190 -32 33 -123 130 -203 214 -80 84 -160
168 -177 187 -113 116 -145 274 -86 420 29 73 71 119 333 363 67 63 138 131
157 150 l34 35 67 -72 c37 -39 101 -108 142 -153 41 -46 86 -95 100 -110 14
-15 63 -69 110 -120 103 -112 130 -142 181 -197 21 -23 39 -46 39 -51 0 -5 -8
-24 -17 -43 -26 -50 -23 -162 5 -214 77 -142 266 -173 385 -62 70 64 93 186
51 272 -48 102 -133 151 -242 142 -52 -4 -67 -2 -81 12 -9 10 -50 55 -92 102
-43 46 -92 100 -110 120 -19 20 -70 76 -114 124 -44 48 -93 102 -110 120 -16
18 -52 56 -79 86 -27 30 -67 73 -89 96 l-41 43 65 62 c36 35 134 128 218 208
84 80 182 173 218 207 99 95 176 132 287 137 61 4 112 -7 174 -36 56 -27 69
-37 133 -103 191 -198 259 -271 256 -275 -55 -92 -63 -181 -23 -259 30 -61 54
-84 115 -113 158 -74 340 40 343 215 2 101 -77 215 -161 233 -14 3 -33 8 -41
13 -8 4 -35 4 -60 0 l-45 -7 -90 93 c-49 51 -123 128 -164 171 -99 106 -153
144 -256 183 -62 23 -189 31 -279 17 -84 -14 -202 -81 -281 -160 -17 -17 -87
-84 -155 -148 -69 -65 -172 -163 -230 -218 l-105 -100 -14 32 c-22 52 -37 139
-34 193 4 66 22 153 34 160 5 4 9 13 9 21 0 26 60 106 131 174 75 72 332 317
394 375 80 75 318 302 384 365 138 133 195 181 245 204 96 45 102 46 201 51
116 6 223 -26 243 -71 6 -12 24 -42 39 -66 15 -24 27 -46 28 -50 0 -4 6 -13
13 -19 6 -7 12 -16 12 -20 0 -3 42 -78 93 -165 51 -88 96 -166 100 -174 4 -8
21 -37 37 -65 17 -27 34 -57 37 -65 4 -8 9 -17 12 -20 3 -3 19 -30 35 -60 16
-30 36 -63 44 -72 8 -10 12 -18 7 -18 -4 0 -3 -6 3 -12 10 -12 73 -120 149
-253 19 -33 37 -68 40 -77 3 -10 9 -18 14 -18 5 0 9 -4 9 -8 0 -5 86 -159 190
-342 105 -183 190 -337 190 -341 0 -5 5 -9 10 -9 6 0 10 -5 10 -10 0 -6 32
-65 70 -131 39 -66 70 -124 70 -129 0 -6 4 -10 8 -10 4 0 13 -12 19 -27 7 -16
25 -50 41 -78 27 -46 110 -190 167 -290 12 -22 45 -80 74 -128 28 -49 51 -93
51 -98 0 -5 5 -9 11 -9 5 0 8 -4 4 -9 -3 -5 -1 -12 4 -15 5 -4 26 -37 47 -74
21 -37 46 -83 57 -102 65 -117 112 -197 124 -211 7 -9 11 -18 8 -21 -3 -3 1
-11 10 -18 8 -7 15 -16 15 -21 0 -5 17 -37 38 -71 21 -35 52 -88 69 -118 16
-30 58 -103 91 -162 34 -58 62 -111 62 -117 0 -6 4 -11 9 -11 5 0 11 -6 13
-12 2 -10 410 -730 535 -945 92 -160 153 -266 178 -312 17 -31 47 -83 66 -116
19 -33 38 -67 42 -75 4 -8 16 -28 27 -45 11 -16 26 -43 34 -60 20 -40 60 -109
67 -115 3 -3 12 -18 21 -35 33 -65 53 -100 61 -103 4 -2 7 -8 7 -13 0 -5 43
-83 95 -174 53 -92 115 -201 139 -243 66 -119 87 -156 96 -167 4 -5 23 -39 43
-75 19 -36 65 -116 101 -179 36 -62 66 -117 66 -121 0 -5 3 -10 8 -12 4 -2 18
-25 32 -53 14 -27 27 -52 30 -55 3 -3 29 -47 58 -98 l52 -92 -21 -23 c-47 -49
-73 -147 -57 -217 19 -78 71 -139 146 -171 84 -36 194 -15 259 51 44 45 51 55
62 96 45 163 -55 309 -219 317 -40 2 -42 4 -138 177 -14 25 -121 213 -238 418
-118 205 -214 377 -214 382 0 5 -3 10 -7 12 -8 3 -46 69 -68 115 -5 13 -13 23
-17 23 -5 0 -8 5 -8 11 0 6 -9 24 -21 40 -11 16 -17 29 -13 29 4 0 0 8 -8 18
-12 14 -98 162 -295 512 -11 19 -34 59 -52 88 -17 29 -31 57 -31 62 0 6 -4 10
-10 10 -5 0 -9 3 -8 8 1 4 -5 18 -14 32 -27 43 -88 151 -88 156 0 3 -8 18 -18
32 -11 15 -32 52 -49 82 -17 30 -40 72 -52 92 -36 64 -60 107 -79 141 -11 17
-59 102 -108 187 -49 85 -100 176 -114 203 -14 26 -28 47 -32 47 -5 0 -8 5 -8
10 0 6 -26 57 -59 113 -53 92 -192 336 -244 427 -11 19 -66 116 -122 215 -57
99 -112 196 -122 215 -11 19 -37 63 -57 97 -20 34 -36 66 -36 72 0 6 -4 11
-10 11 -5 0 -10 4 -10 9 0 5 -41 80 -91 167 -50 88 -104 183 -121 213 -16 29
-43 76 -59 103 -16 27 -29 53 -29 57 0 5 -6 13 -13 19 -6 6 -27 39 -45 74 -18
35 -37 70 -42 78 -51 84 -90 153 -90 155 0 2 -38 69 -85 150 -47 80 -85 148
-85 150 0 1 -18 33 -40 69 -22 36 -40 68 -40 72 0 3 -8 18 -18 32 -11 15 -32
52 -49 82 -43 78 -228 404 -268 470 -18 30 -51 89 -74 130 -23 41 -46 82 -51
90 -18 28 -153 265 -188 330 -19 36 -41 72 -48 80 -7 8 -25 40 -41 70 -16 30
-36 66 -45 80 -31 49 -102 175 -103 182 0 3 -3 10 -7 14 -11 10 -10 83 2 123
11 40 62 97 105 117 17 7 37 18 45 24 34 22 151 90 155 90 3 0 22 11 43 24 52
33 236 140 242 141 3 0 48 26 100 57 52 30 111 65 130 76 19 11 100 57 179
102 120 69 151 83 194 86 49 3 94 -13 138 -48 9 -8 90 -142 181 -298 l164
-285 -29 -43 c-111 -164 1 -382 197 -382 137 0 246 113 241 251 -5 127 -102
226 -228 233 -48 2 -52 4 -79 47 -15 24 -28 48 -28 52 0 4 -5 13 -10 20 -6 7
-56 90 -110 185 l-100 174 21 45 c29 64 89 125 156 158 31 16 64 31 73 33 40
8 158 8 188 0 19 -5 43 -12 53 -14 26 -6 33 -7 224 -54 94 -23 177 -43 185
-45 8 -2 62 -15 120 -30 58 -15 113 -29 123 -31 9 -2 27 -7 40 -10 12 -3 39
-8 60 -11 20 -3 37 -10 37 -15 0 -5 4 -7 9 -4 4 3 32 -1 62 -9 30 -8 149 -38
264 -65 116 -28 221 -53 235 -57 14 -3 32 -8 41 -9 8 -2 42 -11 75 -19 32 -9
70 -18 84 -21 14 -3 33 -7 42 -10 9 -3 26 -7 37 -9 12 -3 30 -7 41 -10 11 -3
28 -7 38 -9 107 -24 103 -19 87 -96 -3 -14 -9 -50 -15 -80 -6 -30 -12 -66 -15
-80 -3 -14 -9 -50 -15 -80 -13 -71 -18 -99 -25 -130 -6 -29 -8 -40 -35 -180
-11 -58 -23 -116 -26 -130 -3 -14 -7 -40 -9 -58 -2 -18 -7 -42 -10 -52 -3 -10
-8 -35 -10 -56 -3 -21 -6 -39 -8 -40 -1 -1 -49 9 -107 23 -58 13 -116 26 -130
29 -14 3 -50 11 -80 19 -30 8 -68 16 -83 19 -16 3 -44 10 -63 16 -20 7 -38 9
-41 6 -3 -3 -16 16 -29 43 -42 92 -112 139 -215 146 -98 6 -191 -52 -231 -145
-21 -49 -25 -120 -9 -162 6 -16 8 -28 5 -28 -7 0 27 -47 54 -76 17 -18 19 -27
11 -70 -9 -45 -31 -166 -44 -239 -3 -16 -10 -52 -15 -80 -5 -27 -12 -66 -15
-85 -4 -19 -11 -55 -16 -80 -6 -25 -13 -58 -15 -75 -2 -16 -6 -41 -9 -55 -3
-14 -8 -41 -11 -60 -3 -19 -12 -66 -19 -105 -24 -117 -26 -129 -30 -165 -3
-19 -9 -55 -15 -80 -32 -149 -32 -167 -5 -209 14 -23 25 -45 25 -51 0 -5 5
-10 10 -10 6 0 10 -4 10 -9 0 -5 75 -136 167 -292 91 -156 181 -309 198 -339
18 -30 69 -117 113 -194 45 -76 82 -140 82 -142 0 -1 14 -23 30 -47 17 -25 30
-48 30 -51 0 -3 18 -35 40 -71 41 -67 48 -89 30 -100 -5 -3 -18 -26 -29 -50
-23 -53 -23 -142 1 -196 20 -45 82 -106 128 -126 47 -20 127 -20 189 1 54 18
122 94 139 156 2 8 4 42 5 75 1 137 -109 240 -253 237 l-45 -1 -140 241 c-77
133 -152 262 -167 287 -15 25 -31 53 -35 61 -4 7 -24 43 -46 78 -40 66 -61
103 -105 182 -13 25 -30 52 -37 60 -7 8 -26 40 -42 70 -33 60 -80 141 -137
238 -39 65 -38 63 -22 148 2 12 7 39 10 60 4 22 8 46 11 54 2 8 6 31 9 50 3
19 8 46 11 60 3 14 7 39 10 55 2 17 6 39 9 50 2 11 11 58 20 105 9 47 18 96
21 110 2 13 7 42 11 65 3 22 12 70 20 107 7 37 16 82 19 100 3 18 10 58 15 88
6 30 12 67 15 83 3 15 7 39 10 53 5 33 2 31 50 37 89 12 154 58 203 144 5 9
32 6 107 -13 55 -14 111 -27 125 -30 64 -12 256 -58 262 -63 4 -3 -7 -73 -23
-156 -17 -82 -32 -161 -34 -175 -2 -14 -9 -50 -15 -80 -6 -30 -13 -64 -15 -75
-4 -27 -13 -75 -30 -165 -8 -41 -16 -85 -18 -97 -2 -12 -6 -25 -9 -29 -9 -8
12 -64 23 -64 5 0 9 -4 9 -10 0 -5 29 -54 65 -109 36 -55 65 -105 65 -110 0
-5 3 -11 8 -13 10 -4 62 -86 62 -98 0 -5 5 -10 10 -10 6 0 10 -7 10 -15 0 -8
5 -15 10 -15 6 0 10 -4 10 -9 0 -5 43 -76 95 -158 93 -147 106 -175 84 -189
-25 -15 -53 -99 -52 -155 3 -126 93 -220 224 -235 48 -5 65 -3 110 18 86 40
124 85 144 173 29 126 -56 259 -182 285 -30 7 -64 10 -75 7 -16 -5 -30 11 -74
79 -30 46 -54 88 -54 93 0 5 -4 11 -8 13 -16 7 -332 518 -332 538 0 11 7 56
16 98 9 42 18 86 20 97 2 11 6 34 8 50 3 17 9 50 15 75 5 25 12 60 15 78 12
67 15 83 31 162 11 59 18 96 30 165 3 22 11 60 17 85 5 25 12 59 14 75 3 17 9
50 15 75 13 62 19 89 25 130 4 29 11 64 19 100 1 3 5 25 9 50 12 63 15 81 21
110 5 25 20 108 31 165 3 17 9 46 13 65 5 19 9 42 9 50 1 8 9 54 19 103 13 67
21 87 34 87 9 0 63 -12 120 -26 57 -14 111 -27 119 -29 8 -2 110 -26 225 -55
116 -28 217 -53 225 -55 8 -2 47 -11 85 -20 39 -9 77 -18 85 -20 8 -2 15 -4
15 -5 0 -1 11 -4 25 -6 81 -15 232 -58 276 -79 28 -14 69 -43 91 -66 40 -40
90 -128 100 -178 11 -51 5 -150 -15 -223 -11 -40 -23 -86 -26 -103 -4 -23 -53
-223 -92 -375 -2 -8 -9 -35 -15 -60 -6 -25 -12 -51 -12 -57 0 -11 -35 -18 -84
-16 -7 1 -13 -2 -13 -6 0 -3 -13 -12 -29 -19 -156 -69 -168 -318 -20 -415 32
-21 105 -42 144 -41 32 0 101 21 119 35 81 64 111 120 111 209 0 72 -18 120
-66 170 -20 21 -28 37 -25 53 3 12 21 87 41 167 45 183 86 348 90 369 2 9 8
31 14 50 6 18 10 36 9 40 0 3 1 8 2 11 4 10 12 66 14 90 2 35 9 38 72 28 101
-16 168 -59 244 -158 19 -25 40 -52 47 -60 22 -27 429 -549 454 -582 13 -17
60 -77 103 -132 140 -177 161 -204 183 -233 11 -15 60 -77 108 -138 47 -60
127 -163 178 -228 51 -66 153 -196 227 -291 74 -95 144 -185 155 -200 11 -16
26 -34 33 -42 11 -12 9 -14 -15 -15 -15 -1 -32 -1 -37 0 -6 1 -459 2 -1008 2
l-998 0 -19 37 c-75 147 -272 182 -386 68 -45 -45 -66 -88 -72 -151 -23 -226
254 -355 413 -191 17 17 39 46 48 64 9 18 22 32 29 33 56 3 247 0 254 -4 9 -6
9 -1358 0 -1414 -21 -120 -143 -242 -275 -275 -27 -6 -819 -15 -899 -9 -7 1
-21 18 -32 38 -74 145 -276 178 -388 63 -95 -97 -94 -253 2 -346 49 -47 99
-67 171 -66 94 1 172 47 212 127 l20 40 443 1 c322 1 459 4 499 14 83 19 170
65 232 123 65 61 98 109 135 197 l27 65 3 719 c2 396 5 721 8 724 7 7 1552 5
1624 -2 35 -3 68 -9 75 -13 6 -4 17 -8 24 -9 16 -3 88 -40 109 -57 18 -14 83
-80 98 -99 25 -31 44 -67 65 -123 l23 -60 0 -1065 c0 -990 -2 -1144 -18 -1170
-3 -5 -8 -20 -10 -32 -3 -11 -19 -45 -37 -75 -65 -108 -174 -183 -302 -210
-38 -8 -945 -11 -948 -3 -1 3 -2 278 -3 613 l-2 608 31 14 c141 68 185 258 86
377 -51 62 -106 86 -192 84 -64 -1 -81 -5 -119 -30 -60 -40 -86 -72 -105 -130
-33 -99 4 -215 88 -276 23 -17 47 -30 55 -30 7 0 13 -3 14 -7 1 -12 1 -1174 0
-1203 l-1 -26 -537 0 -538 0 -23 40 c-67 120 -205 165 -325 107 -50 -24 -76
-50 -107 -106 -28 -50 -35 -146 -14 -187 8 -15 13 -30 12 -33 -7 -12 56 -77
99 -102 37 -21 59 -27 107 -27 73 1 102 6 118 22 7 7 17 12 23 12 15 0 74 67
92 105 l14 30 532 -1 c293 -1 537 -2 542 -3 14 -2 10 -446 -5 -502 -28 -103
-95 -192 -186 -248 -98 -60 -97 -59 -909 -59 -473 0 -744 4 -752 10 -7 6 -19
22 -26 37 -8 14 -46 82 -85 150 -40 69 -72 126 -72 128 0 3 -14 25 -32 51 -18
26 -32 49 -32 52 1 3 -4 14 -11 25 -38 62 -85 147 -85 156 0 5 -4 9 -10 9 -5
0 -10 4 -10 9 0 5 -40 80 -90 166 -49 86 -90 161 -90 166 0 5 -4 9 -10 9 -5 0
-10 4 -10 9 0 5 -32 65 -71 133 -39 67 -83 143 -97 168 -13 25 -29 51 -35 58
-5 6 -6 12 -1 12 5 0 4 4 -1 8 -6 4 -42 61 -80 127 -37 66 -77 132 -87 148
-11 15 -16 27 -12 27 4 0 0 8 -8 18 -13 14 -53 83 -171 292 -11 19 -70 123
-132 230 -61 107 -123 215 -137 240 -41 73 -88 154 -98 170 -6 8 -17 29 -26
45 -8 17 -26 48 -39 70 -14 22 -30 51 -37 65 -7 14 -15 27 -19 30 -3 3 -25 41
-50 85 -54 99 -61 111 -184 326 -55 96 -103 176 -107 177 -5 2 -8 8 -8 14 0 5
-22 48 -50 95 -27 47 -50 89 -50 94 0 5 -4 9 -8 9 -4 0 -13 12 -19 28 -12 27
-37 71 -122 217 -26 44 -50 87 -54 95 -4 8 -15 29 -26 45 -10 17 -107 185
-215 375 -157 275 -195 348 -187 360 37 50 53 105 49 165 -6 69 -26 114 -71
157 -117 115 -313 82 -386 -64 -24 -48 -28 -65 -25 -118 5 -70 22 -110 68
-158 51 -55 112 -78 198 -74 39 2 41 -1 128 -160 8 -15 49 -87 91 -160 43 -73
86 -149 97 -169 40 -72 47 -84 58 -99 6 -8 28 -46 49 -85 21 -38 49 -87 62
-107 12 -21 23 -42 23 -46 0 -5 8 -20 18 -33 10 -13 35 -53 54 -89 20 -36 75
-132 122 -213 47 -82 86 -150 86 -152 0 -2 25 -45 55 -95 30 -50 55 -93 55
-95 0 -2 22 -42 49 -87 42 -72 211 -366 269 -468 11 -19 43 -75 71 -123 28
-49 51 -93 51 -98 0 -5 5 -9 10 -9 6 0 10 -4 10 -10 0 -8 117 -214 252 -445
16 -27 34 -62 41 -78 6 -15 15 -27 19 -27 4 0 8 -4 8 -10 0 -5 14 -33 31 -62
35 -58 58 -98 97 -168 14 -25 50 -88 80 -140 30 -52 66 -115 80 -140 14 -25
36 -62 49 -82 12 -21 23 -40 23 -43 0 -3 11 -22 23 -43 13 -20 39 -64 57 -97
18 -33 38 -63 44 -67 6 -4 7 -8 3 -8 -5 0 0 -12 11 -27 10 -16 33 -53 49 -83
17 -30 62 -109 100 -175 38 -66 72 -127 76 -135 4 -8 16 -28 27 -45 11 -16 26
-43 34 -60 15 -29 24 -45 104 -180 19 -33 40 -69 46 -80 6 -11 46 -82 90 -157
l78 -137 798 0 c853 0 859 1 967 51 27 12 64 33 83 47 48 35 140 131 140 148
0 7 4 13 9 13 9 0 59 111 66 148 2 12 7 27 11 33 3 6 7 123 7 260 l1 249 25 1
c14 1 224 2 466 3 425 2 526 7 553 28 6 6 12 7 12 3 0 -4 6 -3 13 3 6 6 17 11
22 12 45 7 163 87 210 142 62 72 71 85 98 141 64 132 63 112 62 1292 -2 850
-5 1082 -15 1128 -7 32 -17 60 -22 63 -4 3 -8 13 -8 22 0 28 -77 147 -132 203
-29 30 -94 106 -143 169 -49 63 -95 122 -102 130 -6 8 -37 47 -67 85 -31 39
-59 75 -63 80 -5 6 -19 24 -33 41 -14 17 -37 46 -51 65 -62 79 -200 255 -210
268 -20 23 -103 127 -129 161 -22 29 -205 262 -260 330 -110 137 -310 393
-310 396 0 2 -8 12 -17 23 -10 10 -29 33 -43 51 -14 17 -30 37 -35 44 -6 6
-24 29 -40 51 -17 22 -35 46 -42 55 -7 8 -60 76 -119 150 -59 74 -126 152
-148 173 -76 72 -213 125 -313 122 -41 -2 -42 -1 -59 44 -22 58 -71 135 -118
184 -20 20 -38 37 -40 37 -3 0 -24 13 -48 28 -46 31 -117 61 -158 68 -14 3
-32 7 -40 10 -8 3 -26 8 -40 10 -14 3 -79 19 -145 35 -66 17 -127 32 -135 34
-32 7 -116 27 -130 31 -8 2 -42 10 -75 18 -33 8 -199 49 -370 91 -170 42 -319
78 -330 80 -11 2 -47 11 -80 19 -68 18 -83 22 -142 36 -24 5 -62 15 -85 20
-24 6 -54 13 -68 16 -14 3 -52 12 -85 21 -33 8 -67 16 -75 18 -8 2 -35 8 -60
15 -48 13 -70 18 -110 26 -14 3 -34 8 -45 11 -11 4 -26 8 -34 9 -14 3 -157 37
-221 54 -19 5 -48 12 -65 16 -16 4 -34 8 -40 10 -5 1 -66 16 -135 32 -69 17
-219 54 -335 82 -115 29 -218 54 -227 56 -10 2 -28 7 -40 10 -38 11 -211 12
-238 2z m156 -1025 c24 -20 29 -32 28 -68 -1 -56 -35 -94 -91 -102 -34 -4 -45
-1 -73 24 -63 57 -39 155 43 173 42 8 57 4 93 -27z m1024 -372 c17 -5 42 -33
53 -62 37 -91 -64 -172 -146 -118 -34 23 -65 93 -46 105 5 3 7 9 5 13 -6 9 42
56 64 63 13 4 53 3 70 -1z m2294 -762 c13 -6 32 -26 42 -44 26 -49 8 -104 -43
-132 -113 -61 -206 98 -101 171 26 19 67 21 102 5z m-3682 -243 c16 -13 31
-37 34 -53 13 -64 -51 -138 -106 -123 -57 16 -69 23 -81 53 -19 45 -20 57 -3
88 31 62 106 79 156 35z m-1559 -357 c36 -19 57 -52 57 -93 0 -51 -50 -102
-100 -101 -51 0 -100 50 -100 101 1 76 78 126 143 93z m5095 -592 c36 -39 33
-99 -9 -138 -73 -68 -182 -5 -163 95 6 33 47 73 79 78 29 5 70 -10 93 -35z
m-896 -6 c38 -42 38 -90 0 -132 -63 -70 -171 -28 -174 68 -3 89 113 132 174
64z m-5008 -391 c50 -19 75 -84 50 -135 -35 -74 -143 -78 -177 -7 -44 90 34
178 127 142z m1561 -221 c30 -15 46 -45 47 -89 0 -43 -21 -73 -67 -90 -84 -32
-162 59 -120 140 27 52 82 67 140 39z m2793 -374 c80 -67 12 -200 -88 -173
-47 13 -58 24 -71 68 -29 97 82 170 159 105z m2835 -540 c36 -37 40 -60 19
-111 -13 -31 -64 -63 -92 -59 -59 10 -88 39 -97 96 -5 34 21 83 51 97 46 20
84 13 119 -23z m-2212 -303 c91 -82 -22 -225 -124 -157 -28 18 -49 68 -43 101
16 81 106 111 167 56z m-3055 -33 c67 -63 12 -182 -79 -173 -96 9 -125 134
-43 185 38 24 89 19 122 -12z m1286 -1087 c54 -32 64 -104 20 -153 -23 -26
-36 -32 -72 -33 -26 0 -45 4 -48 12 -2 6 -9 12 -17 12 -11 0 -39 51 -40 75 -1
6 5 24 13 41 26 57 90 77 144 46z m2555 -83 c39 -15 65 -46 68 -82 6 -68 -55
-125 -118 -111 -97 20 -113 151 -24 189 39 17 39 17 74 4z m-949 -1788 c8 -1
27 -14 43 -30 70 -70 12 -174 -94 -169 -25 2 -73 51 -79 82 -10 53 54 130 100
121 10 -2 23 -4 30 -4z"/>
</g>
</svg>
